# xmcd
#
# Track frame offsets:
#	182
#	21720
#	40472
#	52822
#	67992
#	84330
#	94772
#	110752
#	129577
#	151132
#
# Disc length: 2188 seconds
#
# Revision: 1
# Processed by: cddbd v1.4b42PL0 Copyright (c) Steve Scherf et al.
# Submitted via: audiograbber 1.80
#
DISCID=7f088a0a
DTITLE=Jean-Rock - Je Serai Toujours Là
DYEAR=1900
DGENRE=
TTITLE0=Je Serai Toujours Là
TTITLE1=Mes Yeux N'ont Jamais Vu
TTITLE2=Frolick Des Accadiens
TTITLE3=T'envoler
TTITLE4=Sur Les Bords Du Lac Bleu
TTITLE5=Fermer Les Honky Tonk
TTITLE6=Partir Pour Oublier
TTITLE7=tes Problèmes Sur Mes Épaules
TTITLE8=CB Body
TTITLE9=À Ma Mère
EXTD=
EXTT0=
EXTT1=
EXTT2=
EXTT3=
EXTT4=
EXTT5=
EXTT6=
EXTT7=
EXTT8=
EXTT9=
PLAYORDER=
